<?xml version="1.0" encoding="UTF-8"?>
<svg width="700pt" height="700pt" version="1.1" viewBox="0 0 700 700" xmlns="http://www.w3.org/2000/svg" xmlns:xlink="http://www.w3.org/1999/xlink">
 <defs>
  <symbol id="u" overflow="visible">
   <path d="m20.844-1.25c-1.0742 0.5625-2.1953 0.98438-3.3594 1.2656-1.168 0.28125-2.3828 0.42188-3.6406 0.42188-3.7812 0-6.7773-1.0508-8.9844-3.1562-2.2109-2.1133-3.3125-4.9766-3.3125-8.5938 0-3.625 1.1016-6.4922 3.3125-8.6094 2.207-2.1133 5.2031-3.1719 8.9844-3.1719 1.2578 0 2.4727 0.14844 3.6406 0.4375 1.1641 0.28125 2.2852 0.69922 3.3594 1.25v4.7031c-1.0859-0.73828-2.1523-1.2812-3.2031-1.625-1.0547-0.34375-2.1641-0.51562-3.3281-0.51562-2.0859 0-3.7266 0.66797-4.9219 2-1.1992 1.3359-1.7969 3.1797-1.7969 5.5312 0 2.3359 0.59766 4.1719 1.7969 5.5156 1.1953 1.3359 2.8359 2 4.9219 2 1.1641 0 2.2734-0.17188 3.3281-0.51562 1.0508-0.34375 2.1172-0.88281 3.2031-1.625z"/>
  </symbol>
  <symbol id="e" overflow="visible">
   <path d="m15.25-12.375c-0.48047-0.22656-0.95312-0.39453-1.4219-0.5-0.46875-0.10156-0.94531-0.15625-1.4219-0.15625-1.3984 0-2.4766 0.44922-3.2344 1.3438-0.75 0.89844-1.125 2.1797-1.125 3.8438v7.8438h-5.4375v-17.016h5.4375v2.7969c0.69531-1.1133 1.5-1.9258 2.4062-2.4375 0.90625-0.50781 1.9922-0.76562 3.2656-0.76562 0.17578 0 0.36719 0.011719 0.57812 0.03125 0.21875 0.011719 0.53125 0.042969 0.9375 0.09375z"/>
  </symbol>
  <symbol id="a" overflow="visible">
   <path d="m19.594-8.5469v1.5469h-12.719c0.13281 1.2734 0.59766 2.2305 1.3906 2.875 0.78906 0.63672 1.8945 0.95312 3.3125 0.95312 1.1445 0 2.3164-0.16406 3.5156-0.5 1.1953-0.34375 2.4297-0.85938 3.7031-1.5469v4.1875c-1.293 0.49219-2.5859 0.85547-3.875 1.0938-1.2812 0.25-2.5625 0.375-3.8438 0.375-3.0859 0-5.4805-0.78125-7.1875-2.3438-1.6992-1.5625-2.5469-3.7539-2.5469-6.5781 0-2.7812 0.83203-4.9609 2.5-6.5469 1.6758-1.5938 3.9844-2.3906 6.9219-2.3906 2.6758 0 4.8164 0.80859 6.4219 2.4219 1.6016 1.6055 2.4062 3.7578 2.4062 6.4531zm-5.5938-1.8125c0-1.0312-0.30469-1.8633-0.90625-2.5-0.59375-0.63281-1.3828-0.95312-2.3594-0.95312-1.0547 0-1.9062 0.29688-2.5625 0.89062s-1.0703 1.4492-1.2344 2.5625z"/>
  </symbol>
  <symbol id="d" overflow="visible">
   <path d="m10.234-7.6562c-1.1367 0-1.9922 0.19531-2.5625 0.57812-0.5625 0.38672-0.84375 0.95312-0.84375 1.7031 0 0.6875 0.22656 1.2305 0.6875 1.625 0.45703 0.38672 1.0977 0.57812 1.9219 0.57812 1.0195 0 1.8789-0.36328 2.5781-1.0938 0.69531-0.73828 1.0469-1.6602 1.0469-2.7656v-0.625zm8.3125-2.0469v9.7031h-5.4844v-2.5156c-0.73047 1.0312-1.5547 1.7812-2.4688 2.25-0.90625 0.46875-2.0117 0.70312-3.3125 0.70312-1.7617 0-3.1953-0.50781-4.2969-1.5312-1.0938-1.0312-1.6406-2.3672-1.6406-4.0156 0-1.9883 0.67969-3.4453 2.0469-4.375 1.375-0.9375 3.5312-1.4062 6.4688-1.4062h3.2031v-0.42188c0-0.86328-0.33984-1.4922-1.0156-1.8906-0.67969-0.40625-1.7344-0.60938-3.1719-0.60938-1.168 0-2.2578 0.12109-3.2656 0.35938-1 0.23047-1.9297 0.57812-2.7812 1.0469v-4.1562c1.1641-0.28125 2.332-0.49219 3.5-0.64062 1.1758-0.14453 2.3516-0.21875 3.5312-0.21875 3.0703 0 5.2852 0.60547 6.6406 1.8125 1.3633 1.2109 2.0469 3.1797 2.0469 5.9062z"/>
  </symbol>
  <symbol id="c" overflow="visible">
   <path d="m8.5469-21.844v4.8281h5.6094v3.8906h-5.6094v7.2188c0 0.79297 0.15625 1.3281 0.46875 1.6094 0.32031 0.27344 0.94531 0.40625 1.875 0.40625h2.7969v3.8906h-4.6719c-2.1484 0-3.668-0.44531-4.5625-1.3438-0.89844-0.89453-1.3438-2.4141-1.3438-4.5625v-7.2188h-2.7031v-3.8906h2.7031v-4.8281z"/>
  </symbol>
  <symbol id="l" overflow="visible">
   <path d="m14.188-14.516v-9.125h5.4688v23.641h-5.4688v-2.4531c-0.75 1-1.5781 1.7344-2.4844 2.2031-0.89844 0.45703-1.9375 0.6875-3.125 0.6875-2.0938 0-3.8203-0.83203-5.1719-2.5-1.3438-1.6641-2.0156-3.8047-2.0156-6.4219 0-2.625 0.67188-4.7695 2.0156-6.4375 1.3516-1.6641 3.0781-2.5 5.1719-2.5 1.1758 0 2.2188 0.23438 3.125 0.70312s1.7344 1.2031 2.4844 2.2031zm-3.5781 11c1.1562 0 2.0391-0.42188 2.6562-1.2656 0.61328-0.85156 0.92188-2.0859 0.92188-3.7031 0-1.625-0.30859-2.8594-0.92188-3.7031-0.61719-0.85156-1.5-1.2812-2.6562-1.2812s-2.043 0.42969-2.6562 1.2812c-0.61719 0.84375-0.92188 2.0781-0.92188 3.7031 0 1.6172 0.30469 2.8516 0.92188 3.7031 0.61328 0.84375 1.5 1.2656 2.6562 1.2656z"/>
  </symbol>
  <symbol id="k" overflow="visible">
   <path d="m11.672-3.5156c1.1562 0 2.0391-0.42188 2.6562-1.2656 0.61328-0.85156 0.92188-2.0859 0.92188-3.7031 0-1.625-0.30859-2.8594-0.92188-3.7031-0.61719-0.85156-1.5-1.2812-2.6562-1.2812-1.168 0-2.0625 0.42969-2.6875 1.2812-0.625 0.85547-0.9375 2.0898-0.9375 3.7031 0 1.6055 0.3125 2.8359 0.9375 3.6875 0.625 0.85547 1.5195 1.2812 2.6875 1.2812zm-3.625-11c0.75-1 1.5781-1.7344 2.4844-2.2031 0.91406-0.46875 1.9688-0.70312 3.1562-0.70312 2.0938 0 3.8125 0.83594 5.1562 2.5 1.3516 1.668 2.0312 3.8125 2.0312 6.4375 0 2.6172-0.67969 4.7578-2.0312 6.4219-1.3438 1.668-3.0625 2.5-5.1562 2.5-1.1875 0-2.2422-0.23438-3.1562-0.70312-0.90625-0.46875-1.7344-1.1953-2.4844-2.1875v2.4531h-5.4375v-23.641h5.4375z"/>
  </symbol>
  <symbol id="j" overflow="visible">
   <path d="m0.375-17.016h5.4375l4.5781 11.547 3.8906-11.547h5.4375l-7.1562 18.625c-0.71875 1.8945-1.5586 3.2188-2.5156 3.9688-0.96094 0.75781-2.2188 1.1406-3.7812 1.1406h-3.1562v-3.5781h1.7031c0.92578 0 1.5977-0.14844 2.0156-0.4375 0.41406-0.29297 0.74219-0.82031 0.98438-1.5781l0.14062-0.46875z"/>
  </symbol>
  <symbol id="g" overflow="visible">
   <path d="m18.641-21.969v4.7969c-1.25-0.55078-2.4688-0.96875-3.6562-1.25-1.1797-0.28125-2.293-0.42188-3.3438-0.42188-1.3984 0-2.4336 0.19531-3.1094 0.57812-0.66797 0.375-1 0.96875-1 1.7812 0 0.61719 0.22266 1.0938 0.67188 1.4375 0.45703 0.33594 1.2734 0.62109 2.4531 0.85938l2.5 0.5c2.5195 0.51172 4.3125 1.2812 5.375 2.3125s1.5938 2.5 1.5938 4.4062c0 2.5-0.74609 4.3594-2.2344 5.5781-1.4805 1.2188-3.7422 1.8281-6.7812 1.8281-1.4375 0-2.8828-0.13672-4.3281-0.40625-1.4492-0.26953-2.8984-0.67578-4.3438-1.2188v-4.9375c1.4453 0.77344 2.8438 1.3555 4.1875 1.75 1.3516 0.38672 2.6602 0.57812 3.9219 0.57812 1.2695 0 2.2422-0.21094 2.9219-0.64062 0.67578-0.42578 1.0156-1.0352 1.0156-1.8281 0-0.70703-0.23047-1.25-0.6875-1.625-0.46094-0.38281-1.375-0.73438-2.75-1.0469l-2.2656-0.5c-2.2734-0.47656-3.9336-1.25-4.9844-2.3125-1.043-1.0703-1.5625-2.5078-1.5625-4.3125 0-2.25 0.72656-3.9844 2.1875-5.2031 1.457-1.2188 3.5508-1.8281 6.2812-1.8281 1.25 0 2.5312 0.09375 3.8438 0.28125 1.3203 0.1875 2.6875 0.46875 4.0938 0.84375z"/>
  </symbol>
  <symbol id="t" overflow="visible">
   <path d="m2.6094-23.641h5.4375v23.641h-5.4375z"/>
  </symbol>
  <symbol id="b" overflow="visible">
   <path d="m10.703-13.531c-1.1992 0-2.1172 0.43359-2.75 1.2969-0.63672 0.86719-0.95312 2.1172-0.95312 3.75 0 1.625 0.31641 2.8711 0.95312 3.7344 0.63281 0.86719 1.5508 1.2969 2.75 1.2969 1.1875 0 2.0938-0.42969 2.7188-1.2969 0.63281-0.86328 0.95312-2.1094 0.95312-3.7344 0-1.6328-0.32031-2.8828-0.95312-3.75-0.625-0.86328-1.5312-1.2969-2.7188-1.2969zm0-3.8906c2.9258 0 5.2109 0.79297 6.8594 2.375 1.6445 1.5742 2.4688 3.7617 2.4688 6.5625 0 2.793-0.82422 4.9805-2.4688 6.5625-1.6484 1.5742-3.9336 2.3594-6.8594 2.3594-2.9375 0-5.2344-0.78516-6.8906-2.3594-1.6484-1.582-2.4688-3.7695-2.4688-6.5625 0-2.8008 0.82031-4.9883 2.4688-6.5625 1.6562-1.582 3.9531-2.375 6.8906-2.375z"/>
  </symbol>
  <symbol id="f" overflow="visible">
   <path d="m19.719-10.359v10.359h-5.4688v-7.9219c0-1.4688-0.039062-2.4766-0.10938-3.0312-0.0625-0.5625-0.17188-0.97656-0.32812-1.25-0.21875-0.35156-0.51172-0.62891-0.875-0.82812-0.36719-0.19531-0.77734-0.29688-1.2344-0.29688-1.1367 0-2.0312 0.44531-2.6875 1.3281-0.64844 0.875-0.96875 2.0859-0.96875 3.625v8.375h-5.4375v-17.016h5.4375v2.5c0.82031-1 1.6914-1.7344 2.6094-2.2031 0.92578-0.46875 1.9453-0.70312 3.0625-0.70312 1.957 0 3.4453 0.60547 4.4688 1.8125 1.0195 1.1992 1.5312 2.9492 1.5312 5.25z"/>
  </symbol>
  <symbol id="i" overflow="visible">
   <path d="m2.6094-17.016h5.4375v17.016h-5.4375zm0-6.625h5.4375v4.4375h-5.4375z"/>
  </symbol>
  <symbol id="h" overflow="visible">
   <path d="m19.719-10.359v10.359h-5.4688v-7.9062c0-1.4766-0.039062-2.4922-0.10938-3.0469-0.0625-0.5625-0.17188-0.97656-0.32812-1.25-0.21875-0.35156-0.51172-0.62891-0.875-0.82812-0.36719-0.19531-0.77734-0.29688-1.2344-0.29688-1.1367 0-2.0312 0.44531-2.6875 1.3281-0.64844 0.875-0.96875 2.0859-0.96875 3.625v8.375h-5.4375v-23.641h5.4375v9.125c0.82031-1 1.6914-1.7344 2.6094-2.2031 0.92578-0.46875 1.9453-0.70312 3.0625-0.70312 1.957 0 3.4453 0.60547 4.4688 1.8125 1.0195 1.1992 1.5312 2.9492 1.5312 5.25z"/>
  </symbol>
  <symbol id="s" overflow="visible">
   <path d="m13.812-23.641v3.5781h-3.0156c-0.77344 0-1.3086 0.14062-1.6094 0.42188-0.30469 0.27344-0.45312 0.75-0.45312 1.4375v1.1875h4.6406v3.8906h-4.6406v13.125h-5.4375v-13.125h-2.7031v-3.8906h2.7031v-1.1875c0-1.8516 0.51562-3.2227 1.5469-4.1094 1.0312-0.88281 2.6289-1.3281 4.7969-1.3281z"/>
  </symbol>
  <symbol id="r" overflow="visible">
   <path d="m18.375-14.188c0.6875-1.0508 1.5039-1.8516 2.4531-2.4062 0.94531-0.55078 1.9883-0.82812 3.125-0.82812 1.957 0 3.4453 0.60547 4.4688 1.8125 1.0195 1.1992 1.5312 2.9492 1.5312 5.25v10.359h-5.4688v-8.875c0.007813-0.125 0.015625-0.25781 0.015625-0.40625 0.007812-0.14453 0.015625-0.34766 0.015625-0.60938 0-1.207-0.17969-2.082-0.53125-2.625-0.35547-0.53906-0.92969-0.8125-1.7188-0.8125-1.0312 0-1.8281 0.42969-2.3906 1.2812-0.5625 0.85547-0.85547 2.0859-0.875 3.6875v8.3594h-5.4688v-8.875c0-1.8828-0.16406-3.0977-0.48438-3.6406-0.32422-0.53906-0.90234-0.8125-1.7344-0.8125-1.043 0-1.8516 0.43359-2.4219 1.2969-0.5625 0.85547-0.84375 2.0742-0.84375 3.6562v8.375h-5.4688v-17.016h5.4688v2.5c0.66406-0.96875 1.4297-1.6914 2.2969-2.1719 0.875-0.48828 1.832-0.73438 2.875-0.73438 1.1758 0 2.2109 0.28906 3.1094 0.85938 0.90625 0.5625 1.5859 1.3555 2.0469 2.375z"/>
  </symbol>
  <symbol id="q" overflow="visible">
   <path d="m2.8594-22.672h6.5312l8.25 15.547v-15.547h5.5469v22.672h-6.5469l-8.2344-15.562v15.562h-5.5469z"/>
  </symbol>
  <symbol id="p" overflow="visible">
   <path d="m2.4375-6.625v-10.391h5.4688v1.7031c0 0.92969-0.007812 2.0898-0.015625 3.4844-0.011719 1.3867-0.015625 2.3125-0.015625 2.7812 0 1.3672 0.03125 2.3516 0.09375 2.9531 0.070312 0.60547 0.19531 1.043 0.375 1.3125 0.21875 0.35547 0.50391 0.63281 0.85938 0.82812 0.36328 0.1875 0.78125 0.28125 1.25 0.28125 1.1328 0 2.0234-0.42969 2.6719-1.2969 0.64453-0.875 0.96875-2.0859 0.96875-3.6406v-8.4062h5.4375v17.016h-5.4375v-2.4531c-0.82422 0.99219-1.6953 1.7188-2.6094 2.1875-0.91797 0.46875-1.9297 0.70312-3.0312 0.70312-1.9609 0-3.4531-0.59766-4.4844-1.7969-1.0234-1.207-1.5312-2.9609-1.5312-5.2656z"/>
  </symbol>
  <symbol id="o" overflow="visible">
   <path d="m2.8594-22.672h9.7031c2.8828 0 5.0977 0.64062 6.6406 1.9219 1.5508 1.2812 2.3281 3.1055 2.3281 5.4688 0 2.375-0.77734 4.2031-2.3281 5.4844-1.543 1.2812-3.7578 1.9219-6.6406 1.9219h-3.8594v7.875h-5.8438zm5.8438 4.2344v6.3281h3.2344c1.1328 0 2.0078-0.27344 2.625-0.82812 0.625-0.55078 0.9375-1.332 0.9375-2.3438 0-1.0078-0.3125-1.7852-0.9375-2.3281-0.61719-0.55078-1.4922-0.82812-2.625-0.82812z"/>
  </symbol>
  <symbol id="n" overflow="visible">
   <path d="m2.6094-17.016h5.4375v16.719c0 2.2695-0.54688 4.0039-1.6406 5.2031-1.0938 1.207-2.6797 1.8125-4.75 1.8125h-2.6875v-3.5781h0.9375c1.0312 0 1.7383-0.23438 2.125-0.70312 0.38281-0.46094 0.57812-1.3711 0.57812-2.7344zm0-6.625h5.4375v4.4375h-5.4375z"/>
  </symbol>
  <symbol id="m" overflow="visible">
   <path d="m16.359-16.484v4.4375c-0.74219-0.50781-1.4844-0.88281-2.2344-1.125-0.74219-0.23828-1.5117-0.35938-2.3125-0.35938-1.5117 0-2.6953 0.44531-3.5469 1.3281-0.84375 0.88672-1.2656 2.125-1.2656 3.7188 0 1.5859 0.42188 2.8203 1.2656 3.7031 0.85156 0.88672 2.0352 1.3281 3.5469 1.3281 0.85156 0 1.6602-0.125 2.4219-0.375 0.76953-0.25 1.4766-0.625 2.125-1.125v4.4531c-0.85547 0.3125-1.7188 0.54688-2.5938 0.70312s-1.75 0.23438-2.625 0.23438c-3.0742 0-5.4766-0.78516-7.2031-2.3594-1.7305-1.5703-2.5938-3.7578-2.5938-6.5625 0-2.8125 0.86328-5.0039 2.5938-6.5781 1.7266-1.5703 4.1289-2.3594 7.2031-2.3594 0.88281 0 1.7578 0.078125 2.625 0.23438 0.86328 0.15625 1.7266 0.39062 2.5938 0.70312z"/>
  </symbol>
 </defs>
 <g>
  <path d="m220.01 44.613c0.74219 6.8438-0.95312 11.258-7.8477 10.465-0.73828-6.8438 0.95313-11.254 7.8477-10.465z" fill-rule="evenodd"/>
  <path d="m400.54 44.613h10.473c3.0547 9.0781-14.629 12.164-10.473 0z" fill-rule="evenodd"/>
  <path d="m246.18 57.691c6.8867-0.78516 8.5859 3.6289 7.8477 10.465h-10.465c-1.1016-5.4688 1.7969-6.9219 2.6172-10.465z" fill-rule="evenodd"/>
  <path d="m520.91 60.312h7.8516v10.465h-10.473c-0.32422-4.6914 3.207-5.5117 2.6211-10.465z" fill-rule="evenodd"/>
  <path d="m301.12 68.16h7.8516c0.68359 8.5312-3.1094 12.594-10.473 13.086-0.83203-6.0703 0.42578-10.047 2.6211-13.086z" fill-rule="evenodd"/>
  <path d="m568 70.777h7.8516v10.465c-8.7383 2.6289-8.5859-3.625-7.8516-10.465z" fill-rule="evenodd"/>
  <path d="m267.11 73.398c6.6641 0.26172 6.1836 9.75 2.6211 13.078-10.711 1.4375-8.8516-11.301-2.6211-13.078z" fill-rule="evenodd"/>
  <path d="m363.91 81.242c4.5977 0.62891 5.9727 4.5 5.2344 10.465h-7.8477c-1.1016-5.4688 1.7891-6.9219 2.6133-10.465z" fill-rule="evenodd"/>
  <path d="m217.39 154.5c-50.699 11.816-59.461-41.707-34.012-62.793 14.734 3.1914 50.277-11.82 57.555 15.699 5.0508 19.043-8.918 35.793-23.543 47.094zm-28.777-13.078c9.8984 6.3828 21.254 4.4609 34.016 2.6133 8.5312-7.3438 17.492-34.184 2.6133-41.863 10.879 27.836-22.602 28.191-36.629 39.25z" fill-rule="evenodd"/>
  <path d="m141.52 99.555c1.1992 8.1758-5.5859 8.3672-13.078 7.8516v-7.8516c3.4336-3.3594 9.6406-3.3594 13.078 0z" fill-rule="evenodd"/>
  <path d="m494.74 99.555h7.8477c0.10547 7.957 1.5312 17.223-7.8477 15.699-3.5781-3.3477-3.5781-12.352 0-15.699z" fill-rule="evenodd"/>
  <path d="m416.24 115.25c-0.34766 26.098-0.69141 46.535-2.625 65.422-32.785-4.0391-60.715 14.777-57.555 54.941 13.809 0.39062 32.711-0.36719 49.711-2.6211 1.9414 19.93-7.1367 37.973 0 54.949-6.6875 11.617-25.105 11.504-44.469 10.473-3.6133 7.5742-5.9805 32.914 2.6133 36.625-11.961 10.789-8.9648 47.309-5.2344 65.422-14.086 13.812-46.027 9.7891-68.027 15.699-11.609-34.09-11.5-80.508-10.465-120.36-11.406-4.3945-28.223 6-44.484 5.2383-3.9375-18.742-3.8516-41.504-5.2266-62.801 23.457-5.793 31.172 1.8867 52.324-5.2344 1.0234-82.711 49.262-118.2 133.44-117.75zm-120.35 120.36c-7.1602 14.648-35.816 7.7969-52.328 13.078-1.543 15.246 2.5391 30.719 0 39.25 18.457 1.8867 27.258-5.8789 44.484-5.2344 5.8477 38.633-1.8672 90.82 15.699 117.74 7.2852 1.8398 30.352-0.25 41.855-2.625-3.1094-35.074 0.58594-73.609 2.6211-107.27 15.984 0.28125 29.699-1.6875 41.855-5.2383 5.2656-7.8164 1.4883-24.684 2.625-36.629-14.355-8.1016-35.262 5.9805-49.715-2.6133-0.82031-46.176 17.211-73.496 60.176-75.879-0.019531-19.09 0.58594-30.004 2.6133-41.863-69.219-8.3008-119.15 37.152-109.89 107.28z" fill-rule="evenodd"/>
  <path d="m308.97 120.49h5.2266c-0.48047 2.2227 1.0195 2.4648 2.6211 2.6133v5.2344c-2.2266-0.48047-2.4648 1.0195-2.6211 2.6133h-5.2266c0.48047-2.2227-1.0195-2.4648-2.6211-2.6133v-5.2344c2.2383 0.48828 2.4727-1.0195 2.6211-2.6133z" fill-rule="evenodd"/>
  <path d="m458.11 125.73h10.461c1.1211 5.4688-1.7852 6.918-2.6055 10.465-6.9023 0.78516-8.5898-3.6289-7.8555-10.465z" fill-rule="evenodd"/>
  <path d="m481.66 146.65v7.8516c-4.6406-0.59766-13.109 2.6328-10.477-5.2344 2.3359-2.0312 5.9141-2.8125 10.477-2.6172z" fill-rule="evenodd"/>
  <path d="m246.18 157.12c13.945-1.6172 12.07 14.891-2.6211 10.465-1.0977-5.4688 1.8008-6.9336 2.6211-10.465z" fill-rule="evenodd"/>
  <path d="m437.17 159.74c4.7305 4.4922-0.80859 10.293-7.8516 10.465-0.72656-6.8398 0.95703-11.25 7.8516-10.465z" fill-rule="evenodd"/>
  <path d="m507.81 170.2h7.8516c1.1133 5.4688-1.7852 6.9258-2.6055 10.473-4.6016-0.63672-5.9648-4.5078-5.2461-10.473z" fill-rule="evenodd"/>
  <path d="m539.22 191.13v7.8516c-4.6406-0.59766-13.09 2.6367-10.465-5.2344 2.3242-2.0312 5.9141-2.8086 10.465-2.6172z" fill-rule="evenodd"/>
  <path d="m170.3 196.38c4.2266-0.74219 4.5039 2.4648 7.8477 2.6133 0.78516 6.8945-3.6211 8.5859-10.461 7.8477-1.1133-5.4727 1.7891-6.9336 2.6133-10.461z" fill-rule="evenodd"/>
  <path d="m259.26 196.38c1.2148 8.1875-2.2773 11.68-10.465 10.461-1.2227-8.1914 2.2695-11.684 10.465-10.461z" fill-rule="evenodd"/>
  <path d="m377 196.38c7.8711-2.6367 4.6367 5.8242 5.2266 10.461h-7.8477c-1.1094-5.4727 1.8047-6.9336 2.6211-10.461z" fill-rule="evenodd"/>
  <path d="m520.91 198.98c0.74219 6.8398-0.95703 11.258-7.8477 10.465-1.3867-2.1016-2.7305-4.25-2.625-7.8477 2.332-2.0273 5.9102-2.8086 10.473-2.6172z" fill-rule="evenodd"/>
  <path d="m489.51 206.83c1.0938 20.289-7.7227 30.652-28.789 28.785-16.926-18.457 9.4336-46.625 28.789-28.785zm-7.8438 7.8477c1.1758-4.2734-14.262-4.2734-13.09 0 0.3125 3.7266 14.34 10.781 13.09 0z" fill-rule="evenodd"/>
  <path d="m431.95 212.07h-10.477c-2.0469-10.078 12.539-10.078 10.477 0z" fill-rule="evenodd"/>
  <path d="m178.15 217.3h7.8516c0.73438 6.8438-0.95312 11.258-7.8516 10.473-4.3633-5.1992 0.23828-3.3281 0-10.473z" fill-rule="evenodd"/>
  <path d="m246.18 217.3c7.7773 0.23047 7 15.605-2.6211 13.086-0.82422-6.0664 0.42578-10.047 2.6211-13.086z" fill-rule="evenodd"/>
  <path d="m397.92 217.3c0.73438 6.8438-0.94531 11.258-7.8516 10.473-0.73437-6.8477 0.96484-11.262 7.8516-10.473z" fill-rule="evenodd"/>
  <path d="m560.15 217.3c10.078-2.0586 10.078 12.523 0 10.473v-10.473z" fill-rule="evenodd"/>
  <path d="m528.76 238.23h7.8516c0.73438 6.8438-0.95703 11.258-7.8516 10.465v-10.465z" fill-rule="evenodd"/>
  <path d="m471.19 253.93h10.477c-0.32812 6.6562-3.8125 10.148-10.477 10.465v-10.465z" fill-rule="evenodd"/>
  <path d="m191.23 256.54c10.926 1.75 1.2148 16.246-5.2344 7.8477 0.92188-3.4375 4.5977-4.1094 5.2344-7.8477z" fill-rule="evenodd"/>
  <path d="m149.36 259.16c14.891 10.621-15.195 17.473 0 0z" fill-rule="evenodd"/>
  <path d="m175.54 264.39c4.2266-0.73438 4.5039 2.4766 7.8516 2.6211 0.78516 6.8945-3.6289 8.5859-10.473 7.8516-1.1055-5.4766 1.8008-6.9336 2.6211-10.473z" fill-rule="evenodd"/>
  <path d="m201.7 287.94c8.1992 1.8047 3.4102 6.9766 2.6133 13.09-11.691 0.42969-6.75-9.2148-2.6133-13.09z" fill-rule="evenodd"/>
  <path d="m494.74 290.56c0.74609 6.8398-0.95313 11.258-7.8516 10.473-0.74219-6.8516 0.95703-11.262 7.8516-10.473z" fill-rule="evenodd"/>
  <path d="m518.29 293.18h5.2344c-0.47266 2.2227 1.0195 2.4648 2.6211 2.6133v5.2383c-2.2148-0.49219-2.4648 1.0156-2.6211 2.6055h-5.2344c0.48047-2.2266-1.0156-2.4648-2.6211-2.6055v-5.2383c2.2305 0.48438 2.4727-1.0273 2.6211-2.6133z" fill-rule="evenodd"/>
  <path d="m418.86 314.11c6.8867-0.79688 8.5859 3.6211 7.8516 10.465h-10.473c-0.32422-4.7031 3.1992-5.5312 2.6211-10.465z" fill-rule="evenodd"/>
  <path d="m390.07 319.34c4.6172 0.62891 5.9805 4.5117 5.2383 10.473h-7.8477c-1.1055-5.4766 1.7969-6.918 2.6094-10.473z" fill-rule="evenodd"/>
  <path d="m499.97 329.81c2.6992 10.672-12.219 13.945-10.461 2.6211 2.3164-2.0352 5.9102-2.8203 10.461-2.6211z" fill-rule="evenodd"/>
  <path d="m154.61 361.21c6.8945-0.78906 8.5859 3.6289 7.8477 10.477h-10.461c-1.1172-5.4805 1.7852-6.9414 2.6133-10.477z" fill-rule="evenodd"/>
  <path d="m256.64 363.83c-0.31641 6.6406-3.8008 10.141-10.461 10.453-8.1484-7.207 3.2578-18.609 10.461-10.453z" fill-rule="evenodd"/>
  <path d="m212.16 369.06c1.8242 9.668-4.1445 11.555-13.078 10.473v-7.8477c3.0312-2.2148 7.0117-3.457 13.078-2.625z" fill-rule="evenodd"/>
  <path d="m447.64 379.52h-10.473c-2.043-10.074 12.531-10.074 10.473 0z" fill-rule="evenodd"/>
  <path d="m452.87 382.13v7.8516c-8.3359-1.5508-8.0898 4.9023-13.078 0 2.3984-4.5859 4.875-9.0859 13.078-7.8516z" fill-rule="evenodd"/>
  <path d="m240.94 395.23v10.453h-10.461c-1.2148-8.1836 2.2734-11.688 10.461-10.453z" fill-rule="evenodd"/>
  <path d="m212.16 410.92c-1.1562 11.93-8.5 17.66-15.699 23.551-14.062-6.5039-16.246-10.422-15.703-28.797 7.1367-13.875 27.277-5.8125 31.402 5.2461zm-18.316 10.461c9.6211 2.5195 10.402-12.836 2.6211-13.078 1.0664 6.3008-4.7852 5.6836-2.6211 13.078z" fill-rule="evenodd"/>
  <path d="m259.26 434.47c6.8438-0.74219 11.258 0.94531 10.465 7.8477-2.3281 2.0352-5.9102 2.8125-10.465 2.6133v-10.461z" fill-rule="evenodd"/>
  <path d="m523.52 434.47c4.2383-0.74219 4.5039 2.4648 7.8516 2.6055 0.78906 6.8867-3.6133 8.582-10.465 7.8516-1.1211-5.4648 1.7852-6.9219 2.6133-10.457z" fill-rule="evenodd"/>
  <path d="m175.54 450.17c-7.3984-2.1641-6.7773 3.6836-13.086 2.6133-4.3984-12.434 15.059-14.438 13.086-2.6133z" fill-rule="evenodd"/>
  <path d="m348.22 450.17c4.5977 0.62891 5.9609 4.4922 5.2266 10.461h-7.8516c-1.1016-5.4727 1.8047-6.9258 2.625-10.461z" fill-rule="evenodd"/>
  <path d="m568 450.17c2.1641 7.3906-3.6953 6.7812-2.625 13.078-3.8203-2.2852-10.129-2.0859-7.8477-10.465 2.3359-2.0352 5.9141-2.8203 10.473-2.6133z" fill-rule="evenodd"/>
  <path d="m366.53 452.79c2.1641 7.3984-3.6836 6.7695-2.6133 13.09-7.7852-0.24219-6.9961-15.617 2.6133-13.09z" fill-rule="evenodd"/>
  <path d="m269.73 471.1c4.1445 0.21094 9.9805-1.2578 10.465 2.6211 2.8594 9.1836-16.051 7.0039-10.465-2.6211z" fill-rule="evenodd"/>
  <path d="m431.95 471.1c4.3477 5.1953-0.23828 3.3242 0 10.473-10.066 2.0469-10.066-12.531 0-10.473z" fill-rule="evenodd"/>
  <path d="m159.84 476.33c-1.582 5.4062-4.043 9.9102-13.086 7.8516v-7.8516c3.4414-3.3594 9.6445-3.3594 13.086 0z" fill-rule="evenodd"/>
  <path d="m235.71 476.33c0.78906 6.8867-3.6289 8.582-10.465 7.8516-0.78516-6.8984 3.625-8.5859 10.465-7.8516z" fill-rule="evenodd"/>
  <path d="m557.54 476.33c6.8438-0.73438 11.25 0.95312 10.473 7.8516-4.9141 5.1367-12.602 1.5156-10.473-7.8516z" fill-rule="evenodd"/>
  <path d="m369.14 484.18c10.066-2.0547 10.066 12.531 0 10.465-4.3594-5.1992 0.23047-3.3281 0-10.465z" fill-rule="evenodd"/>
  <path d="m178.15 489.41c0.74219 6.8398-0.95313 11.258-7.8477 10.461-0.73828-6.8438 0.95312-11.25 7.8477-10.461z" fill-rule="evenodd"/>
  <path d="m390.07 492.03c7.8789-2.6367 4.6406 5.832 5.2383 10.465h-7.8477c-1.1055-5.4727 1.7969-6.9219 2.6094-10.465z" fill-rule="evenodd"/>
  <path d="m112.74 497.27c8.2578 0.45312 15.605 1.8281 15.699 10.461-5.7188 4.9453-16.648-0.75781-15.699-10.461z" fill-rule="evenodd"/>
  <path d="m308.97 497.27h10.465c1.2148 8.1758-2.2773 11.672-10.465 10.461v-10.461z" fill-rule="evenodd"/>
  <path d="m468.57 497.27c10.934 1.7344 1.2266 16.234-5.2266 7.8477 0.92188-3.4297 4.5977-4.125 5.2266-7.8477z" fill-rule="evenodd"/>
  <path d="m426.71 512.96c4.7305 4.4844-0.80078 10.277-7.8516 10.465-0.73438-6.8516 0.96094-11.258 7.8516-10.465z" fill-rule="evenodd"/>
  <path d="m251.41 515.57c6.8945-0.77734 8.5859 3.6133 7.8516 10.465h-10.465c-1.1133-5.4766 1.7891-6.9141 2.6133-10.465z" fill-rule="evenodd"/>
  <path d="m439.79 471.1c-28.266-62.621 60.43-72.852 60.176-20.926-0.13672 29.902-35.258 37.863-60.176 20.926zm5.2266-26.164c10.664-5.0391 22.215-9.1953 34.023-13.086-12.328-12.875-32.012-0.42188-34.023 13.086z" fill-rule="evenodd"/>
  <path d="m445.02 42c49.176 7.6289 104.28-45.945 141.29-13.086 37.594 33.363-27.82 85.336-44.477 109.89 30.855 35.758 60.09 48.09 54.941 102.04-3.1992 33.707-36.367 57.367-41.863 86.34-10.496 55.352 22.824 84.336 44.484 120.36-2.9414 19.719 6.2227 60.242-10.473 73.262-31.559 8.293-46.305-16.57-70.648-23.543-28.621 16.789-58.531 46.426-96.816 41.855-23.562-2.8047-41.684-24.77-65.402-26.16-35.422-2.0703-50.816 21.254-83.727 36.625-35.074-0.57422-56.297-29.75-88.961-31.398-29.672-1.4766-63.391 31.949-91.578 2.625-9.5625-44.039 20.957-67.051 36.629-94.191 1.1211-15.395-12.75-21.344-13.086-34.023-0.89063-33.73 44.184-69.32 15.699-109.89-55.297-12.52-2.6133-63.305-2.6133-96.812 0-39.797-49.754-58.422-34.016-112.5 5.5938-19.203 26.375-52.402 47.098-52.336 12.098 0.042968 23.781 11.195 36.629 13.086 32.551 4.793 66.051-27.016 94.215-20.93 24.285 5.25 33.645 32.641 68.027 31.398 30.863-15.277 83.824-50.109 104.64-2.6133zm-188.38-7.8516c-8.2461 0.39062-1.1016-14.59-13.078-10.465-25.41 8.3359-39.504 21.516-68.027 18.312-16.633-1.8672-34.348-16.711-49.715-7.8516-8.9492 21.848-29.66 38.324-26.164 65.41 2.8125 21.723 23.383 43.113 36.629 52.336-4.8672 12.008 0.81641 18.547 0 28.785-2.1484 26.93-25.988 54.281-23.551 70.641 2.8672 19.207 27.547 21.879 39.25 39.25-2.4453 2.8008-9.6562 0.81641-7.8516 7.8516 8.6797 36.293-12.953 63.367-18.316 94.191 36.121 49.543-44.82 66.777-23.551 125.59 8.1523 1.4375 17.055 2.1328 23.551 5.2383-1.5859-10.305 5.8555-11.586 13.086-13.086v13.086c47.258-33.836 90.078 9.5391 136.05 15.691 29.059-14.23 49.617-40.207 88.961-36.629 23.82 2.1641 46.094 25.484 68.035 26.172 31.508 0.95703 64.227-38.367 86.34-39.25 26.602-1.0703 36.805 32.398 68.027 23.543 25.156-56.723-30.93-89.664-39.25-136.05-12.352-68.984 48.391-96.109 41.871-156.99-1.2578-11.691-7.5234-22.523-13.078-39.242-15.367-14.344-40.445-14.312-41.871-36.637-2.1797-33.922 92.961-69.914 39.25-112.5-44.895-4.793-75.711 15.082-130.81 20.926-7.8359-25.461-57.043-42.77-68.055-7.8516-11.836-4.6172-23.961 7.3477-39.242 7.8477-28.375 0.94141-51.34-21.086-70.648-31.398-3.6406 3.3359-1.1328 12.816-7.8477 13.086z" fill-rule="evenodd"/>
  <use x="70" y="653.332031" xlink:href="#u"/>
  <use x="92.832031" y="653.332031" xlink:href="#e"/>
  <use x="108.175781" y="653.332031" xlink:href="#a"/>
  <use x="129.273437" y="653.332031" xlink:href="#d"/>
  <use x="150.269531" y="653.332031" xlink:href="#c"/>
  <use x="165.140625" y="653.332031" xlink:href="#a"/>
  <use x="186.242188" y="653.332031" xlink:href="#l"/>
  <use x="219.34375" y="653.332031" xlink:href="#k"/>
  <use x="241.613281" y="653.332031" xlink:href="#j"/>
  <use x="272.722656" y="653.332031" xlink:href="#g"/>
  <use x="295.128906" y="653.332031" xlink:href="#d"/>
  <use x="316.125" y="653.332031" xlink:href="#t"/>
  <use x="326.789062" y="653.332031" xlink:href="#b"/>
  <use x="348.160156" y="653.332031" xlink:href="#f"/>
  <use x="370.308594" y="653.332031" xlink:href="#i"/>
  <use x="391.804688" y="653.332031" xlink:href="#g"/>
  <use x="414.210938" y="653.332031" xlink:href="#i"/>
  <use x="424.875" y="653.332031" xlink:href="#f"/>
  <use x="447.023438" y="653.332031" xlink:href="#h"/>
  <use x="469.171875" y="653.332031" xlink:href="#d"/>
  <use x="70" y="684.445312" xlink:href="#s"/>
  <use x="83.535156" y="684.445312" xlink:href="#e"/>
  <use x="98.878906" y="684.445312" xlink:href="#b"/>
  <use x="120.25" y="684.445312" xlink:href="#r"/>
  <use x="163.5" y="684.445312" xlink:href="#c"/>
  <use x="178.371094" y="684.445312" xlink:href="#h"/>
  <use x="200.519531" y="684.445312" xlink:href="#a"/>
  <use x="232.453125" y="684.445312" xlink:href="#q"/>
  <use x="258.488281" y="684.445312" xlink:href="#b"/>
  <use x="279.863281" y="684.445312" xlink:href="#p"/>
  <use x="302.011719" y="684.445312" xlink:href="#f"/>
  <use x="334.992188" y="684.445312" xlink:href="#o"/>
  <use x="357.792969" y="684.445312" xlink:href="#e"/>
  <use x="373.136719" y="684.445312" xlink:href="#b"/>
  <use x="394.507812" y="684.445312" xlink:href="#n"/>
  <use x="405.171875" y="684.445312" xlink:href="#a"/>
  <use x="426.273437" y="684.445312" xlink:href="#m"/>
  <use x="444.714844" y="684.445312" xlink:href="#c"/>
 </g>
</svg>
