<?xml version="1.0" encoding="UTF-8"?>
<svg width="700pt" height="700pt" version="1.1" viewBox="0 0 700 700" xmlns="http://www.w3.org/2000/svg" xmlns:xlink="http://www.w3.org/1999/xlink">
 <defs>
  <symbol id="t" overflow="visible">
   <path d="m3.6562-0.21875c-0.1875 0.09375-0.38672 0.16797-0.59375 0.21875-0.19922 0.050781-0.40625 0.078125-0.625 0.078125-0.66797 0-1.1992-0.17969-1.5938-0.54688-0.38672-0.375-0.57812-0.87891-0.57812-1.5156 0-0.64453 0.19141-1.1484 0.57812-1.5156 0.39453-0.375 0.92578-0.5625 1.5938-0.5625 0.21875 0 0.42578 0.027344 0.625 0.078125 0.20703 0.054687 0.40625 0.125 0.59375 0.21875v0.82812c-0.1875-0.125-0.375-0.21875-0.5625-0.28125-0.17969-0.0625-0.37109-0.09375-0.57812-0.09375-0.36719 0-0.65625 0.12109-0.875 0.35938-0.21094 0.23047-0.3125 0.55469-0.3125 0.96875 0 0.40625 0.10156 0.73047 0.3125 0.96875 0.21875 0.23047 0.50781 0.34375 0.875 0.34375 0.20703 0 0.39844-0.023437 0.57812-0.078125 0.1875-0.0625 0.375-0.16016 0.5625-0.29688z"/>
  </symbol>
  <symbol id="d" overflow="visible">
   <path d="m2.6875-2.1719c-0.085938-0.039063-0.16797-0.070313-0.25-0.09375-0.085938-0.019531-0.16797-0.03125-0.25-0.03125-0.25 0-0.44531 0.085937-0.57812 0.25-0.125 0.15625-0.1875 0.38281-0.1875 0.67188v1.375h-0.96875v-2.9844h0.96875v0.48438c0.11328-0.19531 0.25-0.33594 0.40625-0.42188 0.16406-0.09375 0.35938-0.14062 0.57812-0.14062h0.10938c0.039063 0 0.09375 0.007812 0.15625 0.015625z"/>
  </symbol>
  <symbol id="a" overflow="visible">
   <path d="m3.4375-1.5v0.26562h-2.2344c0.03125 0.23047 0.11328 0.40234 0.25 0.51562 0.13281 0.10547 0.32812 0.15625 0.57812 0.15625 0.20703 0 0.41406-0.023438 0.625-0.078125 0.20703-0.0625 0.42188-0.15625 0.64062-0.28125v0.73438c-0.21875 0.09375-0.44531 0.16406-0.67188 0.20312-0.23047 0.039062-0.45312 0.0625-0.67188 0.0625-0.54297 0-0.96484-0.13281-1.2656-0.40625-0.30469-0.28125-0.45312-0.67188-0.45312-1.1719 0-0.47656 0.14453-0.85938 0.4375-1.1406 0.30078-0.28125 0.70703-0.42188 1.2188-0.42188 0.46875 0 0.84375 0.14062 1.125 0.42188s0.42188 0.66406 0.42188 1.1406zm-0.96875-0.32812c0-0.17578-0.058594-0.31641-0.17188-0.42188-0.10547-0.11328-0.24219-0.17188-0.40625-0.17188-0.1875 0-0.33984 0.054687-0.45312 0.15625-0.11719 0.10547-0.1875 0.25-0.21875 0.4375z"/>
  </symbol>
  <symbol id="k" overflow="visible">
   <path d="m1.7969-1.3438c-0.19922 0-0.35156 0.039062-0.45312 0.10938-0.09375 0.0625-0.14062 0.16406-0.14062 0.29688 0 0.11719 0.035156 0.21094 0.10938 0.28125 0.082031 0.0625 0.19531 0.09375 0.34375 0.09375 0.17578 0 0.32812-0.0625 0.45312-0.1875s0.1875-0.28516 0.1875-0.48438v-0.10938zm1.4688-0.35938v1.7031h-0.96875v-0.4375c-0.125 0.17969-0.27344 0.30859-0.4375 0.39062-0.15625 0.082031-0.35156 0.125-0.57812 0.125-0.3125 0-0.57031-0.085938-0.76562-0.26562-0.1875-0.1875-0.28125-0.42188-0.28125-0.70312 0-0.35156 0.11719-0.61328 0.35938-0.78125 0.23828-0.16406 0.61719-0.25 1.1406-0.25h0.5625v-0.0625c0-0.15625-0.0625-0.26562-0.1875-0.32812-0.11719-0.070312-0.29688-0.10938-0.54688-0.10938-0.21094 0-0.40234 0.023437-0.57812 0.0625-0.17969 0.042969-0.33984 0.10156-0.48438 0.17188v-0.71875c0.19531-0.050781 0.39844-0.085938 0.60938-0.10938 0.20703-0.03125 0.41406-0.046875 0.625-0.046875 0.53906 0 0.92969 0.10938 1.1719 0.32812 0.23828 0.21094 0.35938 0.55469 0.35938 1.0312z"/>
  </symbol>
  <symbol id="c" overflow="visible">
   <path d="m1.5-3.8438v0.85938h0.98438v0.67188h-0.98438v1.2812c0 0.13672 0.023438 0.23047 0.078125 0.28125 0.0625 0.042969 0.17578 0.0625 0.34375 0.0625h0.48438v0.6875h-0.8125c-0.38672 0-0.65625-0.078125-0.8125-0.23438s-0.23438-0.42188-0.23438-0.79688v-1.2812h-0.46875v-0.67188h0.46875v-0.85938z"/>
  </symbol>
  <symbol id="j" overflow="visible">
   <path d="m2.5-2.5469v-1.6094h0.95312v4.1562h-0.95312v-0.4375c-0.13672 0.17969-0.28125 0.30859-0.4375 0.39062-0.15625 0.082031-0.33984 0.125-0.54688 0.125-0.375 0-0.68359-0.14453-0.92188-0.4375-0.23047-0.28906-0.34375-0.67188-0.34375-1.1406 0-0.45703 0.11328-0.83203 0.34375-1.125 0.23828-0.28906 0.54688-0.4375 0.92188-0.4375 0.19531 0 0.375 0.042969 0.53125 0.125 0.16406 0.085938 0.31641 0.21484 0.45312 0.39062zm-0.64062 1.9375c0.20703 0 0.36328-0.070313 0.46875-0.21875 0.11328-0.15625 0.17188-0.37891 0.17188-0.67188 0-0.28125-0.058594-0.49219-0.17188-0.64062-0.10547-0.15625-0.26172-0.23438-0.46875-0.23438-0.19922 0-0.35547 0.078125-0.46875 0.23438-0.10547 0.14844-0.15625 0.35938-0.15625 0.64062 0 0.29297 0.050781 0.51562 0.15625 0.67188 0.11328 0.14844 0.26953 0.21875 0.46875 0.21875z"/>
  </symbol>
  <symbol id="i" overflow="visible">
   <path d="m2.0469-0.60938c0.20703 0 0.36328-0.070313 0.46875-0.21875 0.11328-0.15625 0.17188-0.37891 0.17188-0.67188 0-0.28125-0.058594-0.49219-0.17188-0.64062-0.10547-0.15625-0.26172-0.23438-0.46875-0.23438-0.19922 0-0.35547 0.078125-0.46875 0.23438-0.10547 0.14844-0.15625 0.35938-0.15625 0.64062 0 0.29297 0.050781 0.51562 0.15625 0.67188 0.11328 0.14844 0.26953 0.21875 0.46875 0.21875zm-0.625-1.9375c0.125-0.17578 0.26562-0.30469 0.42188-0.39062 0.16406-0.082031 0.35156-0.125 0.5625-0.125 0.36328 0 0.66406 0.14844 0.90625 0.4375 0.23828 0.29297 0.35938 0.66797 0.35938 1.125 0 0.46875-0.12109 0.85156-0.35938 1.1406-0.24219 0.29297-0.54297 0.4375-0.90625 0.4375-0.21094 0-0.39844-0.042969-0.5625-0.125-0.15625-0.082031-0.29688-0.21094-0.42188-0.39062v0.4375h-0.96875v-4.1562h0.96875z"/>
  </symbol>
  <symbol id="h" overflow="visible">
   <path d="m0.0625-2.9844h0.95312l0.8125 2.0156 0.6875-2.0156h0.95312l-1.2656 3.2656c-0.125 0.33203-0.27344 0.56641-0.4375 0.70312-0.16797 0.13281-0.39062 0.20312-0.67188 0.20312h-0.54688v-0.64062h0.29688c0.16406 0 0.28516-0.027344 0.35938-0.078125 0.070313-0.054688 0.12891-0.14062 0.17188-0.26562l0.03125-0.09375z"/>
  </symbol>
  <symbol id="e" overflow="visible">
   <path d="m3.2344-2.5c0.11328-0.17578 0.25391-0.3125 0.42188-0.40625 0.16406-0.10156 0.35156-0.15625 0.5625-0.15625 0.33203 0 0.58594 0.10938 0.76562 0.32812 0.1875 0.21094 0.28125 0.51172 0.28125 0.90625v1.8281h-0.96875v-1.5625c0.007813-0.019531 0.015625-0.039062 0.015625-0.0625v-0.10938c0-0.21875-0.03125-0.375-0.09375-0.46875s-0.16406-0.14062-0.29688-0.14062c-0.1875 0-0.33594 0.078125-0.4375 0.23438-0.09375 0.14844-0.14062 0.35938-0.14062 0.64062v1.4688h-0.96875v-1.5625c0-0.33203-0.03125-0.54688-0.09375-0.64062-0.054688-0.09375-0.15234-0.14062-0.29688-0.14062-0.17969 0-0.32031 0.078125-0.42188 0.23438-0.09375 0.14844-0.14062 0.35938-0.14062 0.64062v1.4688h-0.96875v-2.9844h0.96875v0.4375c0.11328-0.17578 0.24219-0.30469 0.39062-0.39062 0.15625-0.082031 0.32812-0.125 0.51562-0.125 0.20703 0 0.39062 0.054688 0.54688 0.15625 0.15625 0.09375 0.27344 0.23047 0.35938 0.40625z"/>
  </symbol>
  <symbol id="b" overflow="visible">
   <path d="m1.875-2.375c-0.21094 0-0.37109 0.078125-0.48438 0.23438-0.10547 0.14844-0.15625 0.35938-0.15625 0.64062 0 0.29297 0.050781 0.51562 0.15625 0.67188 0.11328 0.14844 0.27344 0.21875 0.48438 0.21875 0.20703 0 0.36719-0.070313 0.48438-0.21875 0.11328-0.15625 0.17188-0.37891 0.17188-0.67188 0-0.28125-0.058594-0.49219-0.17188-0.64062-0.11719-0.15625-0.27734-0.23438-0.48438-0.23438zm0-0.6875c0.51953 0 0.92188 0.14062 1.2031 0.42188 0.28906 0.27344 0.4375 0.65234 0.4375 1.1406 0 0.5-0.14844 0.89062-0.4375 1.1719-0.28125 0.27344-0.68359 0.40625-1.2031 0.40625-0.51172 0-0.91406-0.13281-1.2031-0.40625-0.29297-0.28125-0.4375-0.67188-0.4375-1.1719 0-0.48828 0.14453-0.86719 0.4375-1.1406 0.28906-0.28125 0.69141-0.42188 1.2031-0.42188z"/>
  </symbol>
  <symbol id="g" overflow="visible">
   <path d="m3.4688-1.8281v1.8281h-0.96875v-1.3906c0-0.25781-0.007812-0.4375-0.015625-0.53125-0.011719-0.10156-0.03125-0.17578-0.0625-0.21875-0.03125-0.0625-0.085937-0.10938-0.15625-0.14062-0.0625-0.039062-0.13281-0.0625-0.20312-0.0625-0.21094 0-0.37109 0.078125-0.48438 0.23438-0.10547 0.15625-0.15625 0.37109-0.15625 0.64062v1.4688h-0.96875v-2.9844h0.96875v0.4375c0.13281-0.17578 0.28516-0.30469 0.45312-0.39062 0.16406-0.082031 0.34375-0.125 0.53125-0.125 0.34375 0 0.60156 0.10938 0.78125 0.32812 0.1875 0.21094 0.28125 0.51172 0.28125 0.90625z"/>
  </symbol>
  <symbol id="f" overflow="visible">
   <path d="m0.45312-4.1562h0.96875v2.2656l1.0938-1.0938h1.1094l-1.4531 1.3594 1.5625 1.625h-1.1562l-1.1562-1.25v1.25h-0.96875z"/>
  </symbol>
  <symbol id="s" overflow="visible">
   <path d="m0.45312-2.9844h0.96875v2.9844h-0.96875zm0-1.1719h0.96875v0.78125h-0.96875z"/>
  </symbol>
  <symbol id="r" overflow="visible">
   <path d="m2.4219-4.1562v0.625h-0.51562c-0.13672 0-0.23438 0.027344-0.29688 0.078125-0.054687 0.054687-0.078125 0.13672-0.078125 0.25v0.21875h0.82812v0.67188h-0.82812v2.3125h-0.95312v-2.3125h-0.46875v-0.67188h0.46875v-0.21875c0-0.32031 0.085937-0.5625 0.26562-0.71875 0.1875-0.15625 0.47266-0.23438 0.85938-0.23438z"/>
  </symbol>
  <symbol id="q" overflow="visible">
   <path d="m3.4688-1.8281v1.8281h-0.96875v-1.3906c0-0.25781-0.007812-0.4375-0.015625-0.53125-0.011719-0.10156-0.03125-0.17578-0.0625-0.21875-0.03125-0.0625-0.085937-0.10938-0.15625-0.14062-0.0625-0.039062-0.13281-0.0625-0.20312-0.0625-0.21094 0-0.37109 0.078125-0.48438 0.23438-0.10547 0.15625-0.15625 0.37109-0.15625 0.64062v1.4688h-0.96875v-4.1562h0.96875v1.6094c0.13281-0.17578 0.28516-0.30469 0.45312-0.39062 0.16406-0.082031 0.34375-0.125 0.53125-0.125 0.34375 0 0.60156 0.10938 0.78125 0.32812 0.1875 0.21094 0.28125 0.51172 0.28125 0.90625z"/>
  </symbol>
  <symbol id="p" overflow="visible">
   <path d="m0.5-3.9844h1.1562l1.4375 2.7344v-2.7344h0.98438v3.9844h-1.1562l-1.4375-2.7344v2.7344h-0.98438z"/>
  </symbol>
  <symbol id="o" overflow="visible">
   <path d="m0.42188-1.1719v-1.8125h0.96875v0.29688 0.60938 0.48438c0 0.24219 0.003906 0.41797 0.015625 0.53125 0.007812 0.10547 0.03125 0.17969 0.0625 0.21875 0.039062 0.0625 0.09375 0.11719 0.15625 0.15625 0.0625 0.03125 0.13281 0.046875 0.21875 0.046875 0.19531 0 0.35156-0.078125 0.46875-0.23438 0.11328-0.15625 0.17188-0.36719 0.17188-0.64062v-1.4688h0.95312v2.9844h-0.95312v-0.4375c-0.14844 0.17969-0.30469 0.30859-0.46875 0.39062-0.15625 0.082031-0.33594 0.125-0.53125 0.125-0.34375 0-0.60938-0.10156-0.79688-0.3125-0.17969-0.21875-0.26562-0.53125-0.26562-0.9375z"/>
  </symbol>
  <symbol id="n" overflow="visible">
   <path d="m0.5-3.9844h1.7031c0.50781 0 0.89844 0.11719 1.1719 0.34375 0.26953 0.21875 0.40625 0.53906 0.40625 0.95312 0 0.41797-0.13672 0.74219-0.40625 0.96875-0.27344 0.21875-0.66406 0.32812-1.1719 0.32812h-0.67188v1.3906h-1.0312zm1.0312 0.75v1.1094h0.5625c0.19531 0 0.34766-0.046875 0.45312-0.14062 0.11328-0.10156 0.17188-0.24219 0.17188-0.42188 0-0.17578-0.058594-0.3125-0.17188-0.40625-0.10547-0.09375-0.25781-0.14062-0.45312-0.14062z"/>
  </symbol>
  <symbol id="m" overflow="visible">
   <path d="m0.45312-2.9844h0.96875v2.9375c0 0.39453-0.10156 0.69531-0.29688 0.90625-0.1875 0.21875-0.46484 0.32812-0.82812 0.32812h-0.48438v-0.64062h0.17188c0.17578 0 0.29688-0.042969 0.35938-0.125 0.070312-0.074219 0.10938-0.23047 0.10938-0.46875zm0-1.1719h0.96875v0.78125h-0.96875z"/>
  </symbol>
  <symbol id="l" overflow="visible">
   <path d="m2.875-2.8906v0.76562c-0.125-0.082031-0.25781-0.14453-0.39062-0.1875-0.13672-0.039062-0.27344-0.0625-0.40625-0.0625-0.27344 0-0.48047 0.078125-0.625 0.23438-0.14844 0.15625-0.21875 0.37109-0.21875 0.64062 0 0.28125 0.070313 0.5 0.21875 0.65625 0.14453 0.15625 0.35156 0.23438 0.625 0.23438 0.14453 0 0.28516-0.019531 0.42188-0.0625 0.13281-0.039063 0.25781-0.10938 0.375-0.20312v0.78125c-0.14844 0.0625-0.29688 0.10156-0.45312 0.125-0.15625 0.03125-0.3125 0.046875-0.46875 0.046875-0.54297 0-0.96484-0.13281-1.2656-0.40625-0.30469-0.28125-0.45312-0.67188-0.45312-1.1719 0-0.48828 0.14844-0.86719 0.45312-1.1406 0.30078-0.28125 0.72266-0.42188 1.2656-0.42188 0.15625 0 0.3125 0.015625 0.46875 0.046875 0.15625 0.023437 0.30469 0.0625 0.45312 0.125z"/>
  </symbol>
 </defs>
 <g>
  <path d="m278.41 440.25-55.188-15.902c19.023-9.375 89.574-44.129 167.38-82.461 39.742 8.043 145.43 28.719 165.54 31.531 4.0586-25.227 16.961-88.887 16.355-106.8-8.9062-4.8203-23.387-6.6797-28.703 6.1289-4.9219 12.055-12.406 23.102-23.617 30.164-33-9.6875-67.695-21.656-98.066-28.773 24.418 9.8438 56.336 19.121 84.156 28.539-4.9297 14.738-4.5938 24.777-6.332 36.664-28.172-6.8008-55.914-12.684-89.863-19.98-10.453-1.6719-21.711-6.9766-31.914-1.8438-40.926 19.969-76.277 37.449-111.52 54.848-1.8828-12.016-1.8281-25.961-7.2383-40.926 17.008-8.6719 42.934-23.57 62.055-32.641-12.445 12.023-15.684 16.523-22.598 24.141 0 0-20.605 23.113-18.133 25.301 2.3281 2.0586 23.234-21.688 23.234-21.688 4.9336-6.1602 19.379-20.246 24.223-31.125 29.18-15.062 54.461-30.012 87.941-22.43 1.9883 0.33203 8.7734 1.9727 4.6211 0.30469-40.102-15.25-75.766 10.469-111.87 26.945l26.961-77.137s21.969-10.082 46.23-25.023l0.75391-54.273-42.004 20.055c3.7773-14 2.4883-30-7.582-41.336 1.6406-1.5742 2.6016-3.5391 2.6016-5.9883 0-18.258-17.352-21.367-17.352-21.367l0.77734 14.504s-5.1797-13.465-18.906-16.574l2.8477 13.727s-9.7109-11.137-21.754-10.359l5.6992 11.402c-30.707 5.4297-51.109 30.043-53.5 59.594-1.7812 14.625-8.9023 35.383-5.7656 50.316l-50.504 24.113-0.011718 0.054687c-3.3086-1.0078-15.055 5.5195-20.188 6.8945 10.254-29.922 16.418-52.055 25.281-80.879 5.3281-5.9648 24.945-21.066 20.23-29.555-3.8828-3.5352-10.082 0.33203-14.137 1.7969 3.4023-10.176 8.3633-23.273 7.8711-35.148-3.8398-12.828-15.336 4.8828-17.418 10.414 0.49609-5.7852-3.3594-11.961-9.2148-7.207-3.1953 2.7305-5.0273 6.4492-6.6602 9.9258-3.7773-14.656-14.332 0.24219-16.348 7.4766-0.28906-7.1914-7.5078-11.449-11.57-3.9062-9.9766 20.594-12.457 42.371-19.672 64.934-4.2812 14.566-9.7773 33.664-14.012 49.961-3.543 12.645-6.6953 26.301-2.9609 39.312 9.2266 34.238 44.438 34.809 69.715 19.441 13.621-4.6992 29.262-10.141 29.262-10.141l-16.301 79.273c-13.629 8.1445-27.883 15.164-41.582 23.152-19.824 12.168-27.152 39.445-16.289 59.801 5.582 10.953 15.133 18.961 26.547 22.809 46.395 15.477 90.453 30.129 107.84 35.914 4.3867 9.1211 7.3945 19.594 8.6055 29.336 0.36719 16.605 7.5781 26.938 24.652 23.926 7.2422-16.535 19.102-83.648 24.84-109.43-19.16-5.0312-22.406-5.8711-37.445-9.7969zm283.66-174.02c3.0703 0.30859 8.2305 0.9375 10.156 0.52734-6.1914 16.883-16.262 75.914-21.09 99.723-3.0703-0.44141-5.7383-0.82422-7.9102-1.1367 6.6367-19.406 10.059-42.957 12.781-55.488 0 0 7.1914-36.523 6.0586-43.629zm-16.938 14.777c2.5781-7.1953 6.2969-15.895 15.312-14.949-1.4453 2.6523-3.4453 10.129-5.3281 18.16-3.0664-1.8633-3.6484-1.6445-5.7031-2.3633 0 0-2.3438-0.75781-4.3789-0.62109 0.03125-0.074219 0.066407-0.15234 0.097657-0.22656zm-2.2734 5.0234c0.097657-0.1875 0.1875-0.37891 0.28125-0.56641 2.3906 1.9492 4.3281 2.2227 5.3828 2.6133-1.125 0.86719-2.3711 1.9531-3.6328 3.1133-0.30078-0.24219-1.5234-1.5586-3.5508-2.4141 0.53516-0.90625 1.043-1.8281 1.5195-2.75zm-4.418 7.1328c0.73438 1.1289 1.668 2.0664 1.9961 2.375-1.1562 1.1758-2.1914 2.2617-3 3.125-0.50781-0.48047-1.2812-1.1367-2.1523-1.5977 1.1094-1.2617 2.1719-2.5586 3.1562-3.9023zm-6.7852 7.6953c0.50391 1.0078 1.1953 1.9023 1.5938 2.375-0.70703 0.78125-1.7109 1.8789-2.5156 2.7695-0.47656-0.64062-1.2734-1.6016-2.2109-2.3125 1.0703-0.90625 2.1094-1.8555 3.1289-2.832zm-7.8789 9.793c0.14844-1.1758 0.30469-2.418 0.44922-3.6016 0.078125-0.058594 0.15625-0.11719 0.23828-0.17578 0.91406 2.5156 1.4648 3.0156 2.0625 3.9922-1.0898 1.3125-2.2383 2.7344-3.3008 4.1406 0.17969-1.4375 0.36328-2.8828 0.55078-4.3555zm-3.1133 24.293c0.48828-3.7852 1.0312-8.0117 1.6094-12.512 2.3242-1.5586 5.4805-4.5078 8.2188-7.2422 2.3984 1.4922 4.5-0.98438 3.4023-3.4961 2.6289-2.793 2.3281-2.5117 4.0703-4.4141 2.3984 1.2617 4.6953-1.2656 3.3086-3.6406 0.82812-0.91797 2.3086-2.5898 3.9492-4.5547 2.7031 1.3555 4.9727-1.4453 3.1602-3.9258 1.7227-2.2422 3.2695-4.4766 4.0859-6.1797 0.51172 0.050781 1.0391 0.070313 1.5508 0.027344-6.0742 31.652-9.9531 41.301-12.938 76.027-3.0469-0.44531-20.68-2.9297-23.965-3.3945 1.4336-10.68 1.1211-8.3711 3.5508-26.695zm-13.945-0.50391c0.61328-7.4453 3.0859-18.77 1.8633-31.023 3.2266 1.0508 6.5234 2.125 9.875 3.2188-1.7617 12.328-3.543 25.031-5.1016 36.484-0.94922-0.46875-3.5508-1.2539-7.4922-2.293 0.53516-3.6602 0.85937-6.3867 0.85937-6.3867zm-1.1602 8.3867c4.0156 0.58594 6.6992 0.875 7.7266 0.78906-1.6445 12.066-1.3906 10.172-2.3906 17.633-3.1133-0.65234-6.2578-1.3125-9.4102-1.9727 1.5938-2.168 3.0938-10.117 4.0742-16.449zm-235.84 34.93c35.863-17.711 69.309-34.168 110.48-54.711 9.8125-4.8906 20.754 1.0234 30.973 2.1562 33.344 6.5625 60.543 11.996 88.516 16.711-0.54297 6.1953-0.98047 14.305 0.082032 17.008-35.516-7.4492-73.316-15.375-109.93-23.055-44.77 21.918-87.695 42.938-122.08 59.773 0.48438-3.5234 0.066406-10.555-0.47266-16.68l2.4297-1.1992zm-113-260.05h-0.003906v-0.003907s0.003906 0.003907 0.003906 0.003907zm11.5 175.16c-0.28125-0.37109-0.72266 1.418-1.0938 2.2305-0.73828 0.14453-1.0898 0.24609-1.9727 0.46484-10.918 3.0312-22.039 7.2891-33.984 5.4492-21.754-2.5703-32.289-26.688-28.125-46.625 5.793-25.297 14.559-52.59 21.52-76.391 5.1445-19.055 8.0273-35.891 15.832-52.781 1.25 6.9727 0.53906 13.949-0.066406 21.148l6.1133 1.0664c2.2148-8.0234 5.0586-20.34 10.695-28.219 0.79297 6.5508-0.23438 13.352-1.125 20.02l5.8477 1.1797c4.5938-18.746 16.969-47.207 9.4727-5.6367l4.9766 1.2891c3.8125-10.48 6.8594-23.609 15.199-30.941 4.4141 2.4062-4.2266 31.086-4.5703 35.82-3.8438 1.8594-13.68 6.9414-14.117 9.5312 4.9766-0.67578 15.652-6.4375 22.117-7.832 0.91797-0.074219 2.5391-1.1055 3.0273-0.17969-5.293 8.5625-13.656 15.273-20.859 22.098-10.359 33.551-18.113 59.121-27.801 93.434 8.25-4.4531 22.098-10.254 28.059-16.02l-9.1484 50.895zm109.3 161.59 2.207-7.4414 18.18 4.7461c-9.4336 34.137-9.8672 44.52-15.555 74.305-0.25781-0.078124-0.52734-0.13672-0.80859-0.18359-0.019531-2.0078-0.52734-4.9453-1.1797-7.9141 2.25-1.6562 1.9805-4.9414-1.1289-4.6953-0.49219-1.9102-0.96094-3.5859-1.293-4.7344 1.832-1.6992 1.4531-4.6406-1.3086-4.3945-0.66406-2.1914-0.78516-2.6758-1.6562-5.4531 1.1484-1.7109 0.90625-4.1133-1.3281-4.0195-1.3438-3.8906-3.1445-8.5586-4.7812-11.062 0.058594-0.19531 8.5938-28.973 8.6484-29.148zm-14.648-12.219 10.859 3.1289-3.2188 10.848c-1.3828-0.76172-4.3867-2.0508-8.6797-3.7617 0.67188-3.9492 1.1641-7.8203 1.0352-10.215zm2.6406-45.488c-25.785 12.625-46.582 22.809-59.461 29.113 28.613 8.2461 31.867 9.1836 54.199 15.617-1.0898 1.9336-2.3086 5.3438-3.4375 9-25.211-10.258-57.945-20.102-82.801-30.625 25.109-10.844 67.285-29.289 87.789-38.305 1.0039 6.0625 2.332 12.602 3.7109 15.199zm88.172-202.15 0.023437 0.011719-0.027344 0.007812c0.003907-0.007812 0-0.015625 0.003907-0.023438zm-120.5 12.93c-0.38672-9.1641 10.688-16.938 16.695-26.711-9.8867-0.80859-12.117-12.684-5.7617-20.965 6.0547-8.1758 17.574-9.5938 21.504-0.90625 8-11.664 15.164-23.176 19.328-32.312 0 0 29.613 4.5586 43.66-1.2422 16.172 16.012 6.6484 41.656 4.4766 60.391 6.1211 2.9141 13.77 6.7109 19.68 8.707-5.9219 1.0469-15.59 4.0781-22.387 6.1289-1.8828 8.7617-5.9648 17.094-12.125 24.102-11.559-6.4375-24.77-13.23-32.992-23.93-4.2188-4.9102-8.9922-13.293-11.59-19.258-1.2266-2.5938-2.0859-4.3555-2.9023-4.2578-2.3398 2.8672 0.63672 10.977 2.4258 15.375-40.73 11.863-11.234 51.355 14.574 19.758 7.2539 6.6523 18.688 13.152 28.695 14.305-24.379 28.527-83.543 26.219-83.277-19.18zm33.801 2.6758c2.832 3.0781 11.133-3.3672 13.395-5.6406 2.2773 2.832 2.1016 2.5156 3.3281 3.8555-6.4023 6.8477-20.008 16.559-24.785 3.332-0.25391-7.918 10.168-12.383 15.371-16.738 0.95312 1.9102 2.0195 3.7227 3.0664 5.3398-3.0039 1.2656-12.141 5.7773-10.379 9.8555zm-36.328 112.34c30.184-21.953 61.219-45.953 82.812-76.848 2.4414-3.1562 9.0625-13.719 4.8242-1.6602-11.531 24.379-30.816 41.902-51.703 58.906-8.6758 6.9492-23.922 17.477-33.809 22.602-10.52 5.6094-11.785 3.9766-2.1289-3zm1.2695 168.52c2.3477 0.65234-52.402-17.25-81.598-27.145-5.1406-1.9023-9.7656-4.8398-13.762-8.6602-13.422-12.621-16.246-34.426-6.207-50.055 8.2539-13.625 24.516-18.508 37.57-26.641 13.352 0.57031 28.734-3.2578 36.969-4.4023 0 0 28.938-4.918 28.371-8.168-0.53516-3.0625-30.066 2.1562-30.066 2.1562-9.3203 1.7188-10.883 1.6055-25.457 4.9609 2.5391-1.4102 7.0273-3.9023 9.6172-5.3438l-0.53516 0.046875c30.246-15.297 50.906-24.879 70.562-35.344-0.73438 18.457 1.9648 28.535 3.4297 42.723-15.43 6.7891-59.41 26.211-82.066 36.355-4.0156 2.2109-9.332 3.2188-12.676 6.375-2.7852 4.3281 2.0273 6.6797 5.6719 7.5352 28.09 9.3828 57.445 19.398 84.281 27.613-4.668 19.148-6.6602 21.398-8.8438 43.07l-15.262-5.0742zm25.707 8.5469-7.6719-2.5508c7.6562-19.945 7.1953-23.91 11.477-42.387 4.293 1.2422 7.3477 2.0312 8.8594 2.2578zm5.8438 2.1562 3.2305-10.895c0.44922 2.207 1.0117 4.5078 1.5352 6.5234-2.3984 2.0469-2.3008 1.8164-4.7695 4.3672zm2.0156 8.2734c-0.28906-0.77734-0.58203-1.5508-0.89063-2.3203 2.9844-1.2891 4.832-3.1953 5.5-3.7227l0.6875 2.2852c-1.9414 1.25-2.5312 1.1523-5.293 3.7617zm1.5781 4.5859c2.6914-0.41016 5.2695-2.0703 5.582-2.2344 0.25391 0.78516 0.54688 1.6719 0.86719 2.6172-1.8438 1.0078-2.5742 0.93359-5.375 3.3242-0.33594-1.2383-0.6875-2.4766-1.0781-3.707zm2.1992 8.2539c3.3711-0.22656 5.25-1.5195 6.418-2.0078 0.74219 1.8359 1.5234 3.5664 2.2812 4.9062-3.5117 0.53906-3.4961 0.070312-7.8242 1.6992-0.25781-1.5273-0.54297-3.0625-0.87891-4.5977zm9.9648 32.906c-8.9453-4.1992-7.332-15.039-8.3867-23.34 2.1758 0.31641 4.7422-0.085938 4.7422-0.085938 2.2617-0.42188 2.5664-0.12891 5.957-1.3398-1.6953 10.758-3.1445 22.016-2.3086 24.766zm29.434-101.23c-4.3359 24.066-17.523 86.855-17.766 104.68-1.6055-1.1094-8.0781-1.7422-10.762-3.0156 3.3789-3.2969 11.488-46.879 11.488-46.879 2.3359-13.93 7.168-33.852 8.8555-56.91 0.85938 0.22266 3.8125 0.98828 8.1836 2.125z"/>
  <path d="m386.46 143.39c2.9062-0.92188 6.4414-2.2852 9.4102-3.5977 6.0391-24.617 11.215-52.117 15.469-74.176 0.089844-0.44922 0.26172-0.91016-0.085938-1.3008-4.0781-7.6211-9.0625-15.816-10.855-24.684-0.38672-2.9062 10.539 7.8555 11.242 8.2695 12.262 11.988 8.4375 3.9609 0.78906-4.7227 3.4062-11.988 9.5273-43.336 8.9805-5.3867-0.10937 2.082 3.1289 2.7852 3.8633 1.7031 0.68359-0.65234 0.69141-0.92188 0.88281-1.6445 1.4336-7.5078 2.2266-15.586 5.7383-22.438 1.7969-1.6016 1.2734 9.7891 1.3828 11.27 0.015625 2.0781-0.25 4.0508-0.03125 6.1328 0.57031 2.6953 4.4805 2.5039 4.5156 1.7109 1.2461-1.293 0.52344-0.51953 1.0039-1.3359 2.1523-6.5625 3.9766-13.375 6.5781-19.625 0.066406-0.10156 0.10156-0.20312 0.18359-0.19531 0.066406 5.082-0.80078 10.102-0.64062 15.164 0.19922 2.3672 3.6875 3.5195 5.2383 1.7695 4.0195-7.0547 6.3398-16.445 10.879-22.355 0.57813 10.574-1.4336 21.352-2.3125 31.91-1.2734 20.453-3.4961 42.461-8.1406 64.977-6.75 34.965-17.574 55.379-46.473 76.289-30.762 22.102-27.566 22.434 2.6719 2.5977 10.812-7.7773 25.695-19.109 33.297-32.059 16.363-28.797 20.828-66.969 23.863-97.801 0.79297-17.441 3.6484-29.215 3.3242-45.953-1.543-15.094-11.902-5.6367-15.621 3.9297 0.68359-11.094-7.3203-12.621-11.16-2.0312-0.81641 1.8672-1.5547 3.8398-2.2227 5.7617-2.6172-13.723-12.344-4.6367-13.59 4.25-1.0859-6.2852-6.7578-6.9961-8.8984-0.82422-2.7266 7.2344-3.8086 15.809-4.4805 22.879-4.1719-4.9336-15.898-15.992-16.434-2.5195 0.82812 9.4141 6.0781 18.543 10.145 26.445v0.003907l-0.003906 0.003906c-3.9766 21.055-9.4922 47.152-12.641 71.25-2.25 1.3086-15.645 9.0625-5.875 6.332z"/>
  <path d="m568.78 406.19h-6.9414c0.60156-2.043 0.96875-4.9453-0.625-5.6836-0.90234-0.039062-2.3906 4.457-4.0938 5.6836h-13.289c-2.3008-2.5703-2.8477-6.0078-1.5-9.0781 1.9102-4.8789 9.1172-6.7734 13.422-3.4258 2.4883 1.0977 4.2578 6.332 5.5938 6.8203 2.6328-2.4922 0.039062-8.0664-2.6641-10.617-10.973-10.309-28.254 3.0469-22.117 16.301h-114.57c0.60156-2.043 0.96875-4.9453-0.625-5.6836-0.90234-0.039062-2.3906 4.457-4.0938 5.6836h-13.289c-2.3008-2.5703-2.8477-6.0078-1.5-9.0781 1.9102-4.8789 9.1172-6.7734 13.422-3.4258 2.4883 1.0977 4.2578 6.332 5.5938 6.8203 2.6328-2.4922 0.039063-8.0664-2.6641-10.617-10.973-10.309-28.254 3.0469-22.117 16.301-51.027-5.0078-56.957 70.648-5.5742 72.527h177.64c20.027 0 36.266-16.234 36.266-36.262 0-20.027-16.234-36.266-36.266-36.266zm-168.55 47.184c-4.4102 0.066406-4.4102-6.8672 0-6.8008 4.4141-0.066407 4.4141 6.8672 0 6.8008zm0-17.387c-4.4102 0.066407-4.4102-6.8672 0-6.8008 4.4141-0.066406 4.4141 6.8672 0 6.8008zm17.77 17.387c-4.4141 0.066406-4.4141-6.8672 0-6.8008 4.4102-0.066407 4.4102 6.8672 0 6.8008zm0-17.387c-4.4141 0.066407-4.4141-6.8672 0-6.8008 4.4102-0.066406 4.4102 6.8672 0 6.8008zm122.79 17.387c-4.4102 0.066406-4.4141-6.8672 0-6.8008 4.4102-0.066407 4.4102 6.8672 0 6.8008zm0-17.387c-4.4102 0.066407-4.4141-6.8672 0-6.8008 4.4102-0.066406 4.4102 6.8672 0 6.8008zm17.77 17.387c-4.4102 0.066406-4.4141-6.8672 0-6.8008 4.4102-0.066407 4.4102 6.8672 0 6.8008zm0-17.387c-4.4102 0.066407-4.4141-6.8672 0-6.8008 4.4102-0.066406 4.4102 6.8672 0 6.8008z"/>
  <path d="m289.25 185.38c9.6875 2.3281 14.562-17.902 4.8789-20.238-9.6875-2.3281-14.562 17.902-4.8789 20.238z"/>
  <path d="m322.82 180.93c9.1758 1.3164 11.547-18.477 2.3203-19.367-9.1719-1.3164-11.547 18.477-2.3203 19.367z"/>
  <path d="m293.27 157.45c3.0898 5.1562 6.8242 9.5195 12.516 11.543 11.332 2.1562-1.0391-6.7695-3.3398-9.5547-2.0859-2.2383-3.5664-4.457-5.5508-7.0391-6.3828-9.0469-7.6602-1.3359-3.625 5.0469z"/>
  <path d="m252.51 166.3c0.25391-0.23047 0.41797-0.33203 0.41016-0.34766 0.70703-0.59766 1.5703-0.76562 2.4414-1.1484 5.1367-1.2227 3.2031-5.9922-1.6172-5.6094-9.1562 0.10547-10.051 16.02-1.2344 7.1055z"/>
  <use x="70" y="576.40625" xlink:href="#t"/>
  <use x="74.011719" y="576.40625" xlink:href="#d"/>
  <use x="76.710938" y="576.40625" xlink:href="#a"/>
  <use x="80.417969" y="576.40625" xlink:href="#k"/>
  <use x="84.109375" y="576.40625" xlink:href="#c"/>
  <use x="86.722656" y="576.40625" xlink:href="#a"/>
  <use x="90.433594" y="576.40625" xlink:href="#j"/>
  <use x="96.25" y="576.40625" xlink:href="#i"/>
  <use x="100.167969" y="576.40625" xlink:href="#h"/>
  <use x="105.636719" y="576.40625" xlink:href="#e"/>
  <use x="111.332031" y="576.40625" xlink:href="#b"/>
  <use x="115.089844" y="576.40625" xlink:href="#g"/>
  <use x="118.984375" y="576.40625" xlink:href="#f"/>
  <use x="122.621094" y="576.40625" xlink:href="#s"/>
  <use x="124.496094" y="576.40625" xlink:href="#f"/>
  <use x="70" y="581.875" xlink:href="#r"/>
  <use x="72.378906" y="581.875" xlink:href="#d"/>
  <use x="75.078125" y="581.875" xlink:href="#b"/>
  <use x="78.832031" y="581.875" xlink:href="#e"/>
  <use x="86.4375" y="581.875" xlink:href="#c"/>
  <use x="89.050781" y="581.875" xlink:href="#q"/>
  <use x="92.941406" y="581.875" xlink:href="#a"/>
  <use x="98.554688" y="581.875" xlink:href="#p"/>
  <use x="103.132812" y="581.875" xlink:href="#b"/>
  <use x="106.890625" y="581.875" xlink:href="#o"/>
  <use x="110.785156" y="581.875" xlink:href="#g"/>
  <use x="116.582031" y="581.875" xlink:href="#n"/>
  <use x="120.589844" y="581.875" xlink:href="#d"/>
  <use x="123.285156" y="581.875" xlink:href="#b"/>
  <use x="127.042969" y="581.875" xlink:href="#m"/>
  <use x="128.917969" y="581.875" xlink:href="#a"/>
  <use x="132.625" y="581.875" xlink:href="#l"/>
  <use x="135.867188" y="581.875" xlink:href="#c"/>
 </g>
</svg>
